<svg width="596" height="44" viewBox="0 0 596 44" fill="none" xmlns="http://www.w3.org/2000/svg">
<path d="M23.85 33L21.195 26.7H9.09L6.435 33H0.09L13.005 2.985H17.595L30.15 33H23.85ZM10.935 21.93H19.485L15.21 11.13L10.935 21.93Z" fill="black"/>
<path d="M42.1773 2.985H48.0273V27.96H57.2973V33H42.1773V2.985ZM74.4775 16.035V13.515H79.9675V33H74.4775V30.48C72.4975 33.315 69.8875 33.63 68.4925 33.63C62.5075 33.63 58.5475 28.95 58.5475 23.235C58.5475 17.475 62.4625 12.885 68.2225 12.885C69.7075 12.885 72.6325 13.155 74.4775 16.035ZM69.6175 17.745C66.4675 17.745 64.2175 20.13 64.2175 23.235C64.2175 26.34 66.4675 28.77 69.6175 28.77C72.7675 28.77 75.0175 26.34 75.0175 23.235C75.0175 20.13 72.7675 17.745 69.6175 17.745ZM84.2115 33V13.515H89.7015V16.035C90.7365 14.595 92.5815 12.885 95.7315 12.885C97.4415 12.885 99.9615 13.38 101.492 15.27C102.842 16.935 103.022 18.87 103.022 20.76V33H97.5315V22.38C97.5315 21.3 97.4865 19.59 96.4965 18.555C95.6415 17.655 94.4715 17.565 93.9315 17.565C92.4915 17.565 91.3665 18.06 90.5565 19.275C89.7465 20.535 89.7015 21.93 89.7015 23.055V33H84.2115ZM122.11 16.035V13.515H127.6V32.1C127.6 35.07 127.33 38.175 124.9 40.605C123.55 41.955 121.21 43.35 117.205 43.35C113.425 43.35 111.175 42.225 109.915 41.1C108.385 39.795 107.215 37.5 106.765 35.295H112.705C112.93 36.195 113.425 37.095 114.055 37.635C115.135 38.625 116.62 38.67 117.385 38.67C118.96 38.67 119.995 38.13 120.715 37.455C121.975 36.24 122.11 34.71 122.11 33.135V30.39C120.22 33.27 117.61 33.63 116.125 33.63C113.515 33.63 111.265 32.82 109.375 30.975C107.935 29.535 106.27 27.015 106.27 23.235C106.27 20.175 107.395 17.34 109.285 15.495C110.995 13.83 113.38 12.885 115.99 12.885C119.635 12.885 121.345 14.865 122.11 16.035ZM117.34 17.745C115.585 17.745 114.37 18.465 113.695 19.095C112.795 19.905 111.94 21.21 111.94 23.235C111.94 24.945 112.57 26.205 113.38 27.06C114.55 28.32 116.035 28.77 117.34 28.77C118.69 28.77 120.04 28.275 120.985 27.42C122.11 26.385 122.74 24.81 122.74 23.235C122.74 21.39 121.93 20.13 121.165 19.32C120.085 18.195 118.825 17.745 117.34 17.745ZM131.846 13.515H137.336V24.54C137.336 25.575 137.426 26.97 138.506 27.96C139.181 28.545 140.261 28.95 141.296 28.95C142.331 28.95 143.411 28.545 144.086 27.96C145.166 26.97 145.256 25.575 145.256 24.54V13.515H150.746V25.44C150.746 27.195 150.521 29.535 148.361 31.425C146.561 33 143.681 33.63 141.296 33.63C138.911 33.63 136.031 33 134.231 31.425C132.071 29.535 131.846 27.195 131.846 25.44V13.515ZM169.922 16.035V13.515H175.412V33H169.922V30.48C167.942 33.315 165.332 33.63 163.937 33.63C157.952 33.63 153.992 28.95 153.992 23.235C153.992 17.475 157.907 12.885 163.667 12.885C165.152 12.885 168.077 13.155 169.922 16.035ZM165.062 17.745C161.912 17.745 159.662 20.13 159.662 23.235C159.662 26.34 161.912 28.77 165.062 28.77C168.212 28.77 170.462 26.34 170.462 23.235C170.462 20.13 168.212 17.745 165.062 17.745ZM194.506 16.035V13.515H199.996V32.1C199.996 35.07 199.726 38.175 197.296 40.605C195.946 41.955 193.606 43.35 189.601 43.35C185.821 43.35 183.571 42.225 182.311 41.1C180.781 39.795 179.611 37.5 179.161 35.295H185.101C185.326 36.195 185.821 37.095 186.451 37.635C187.531 38.625 189.016 38.67 189.781 38.67C191.356 38.67 192.391 38.13 193.111 37.455C194.371 36.24 194.506 34.71 194.506 33.135V30.39C192.616 33.27 190.006 33.63 188.521 33.63C185.911 33.63 183.661 32.82 181.771 30.975C180.331 29.535 178.666 27.015 178.666 23.235C178.666 20.175 179.791 17.34 181.681 15.495C183.391 13.83 185.776 12.885 188.386 12.885C192.031 12.885 193.741 14.865 194.506 16.035ZM189.736 17.745C187.981 17.745 186.766 18.465 186.091 19.095C185.191 19.905 184.336 21.21 184.336 23.235C184.336 24.945 184.966 26.205 185.776 27.06C186.946 28.32 188.431 28.77 189.736 28.77C191.086 28.77 192.436 28.275 193.381 27.42C194.506 26.385 195.136 24.81 195.136 23.235C195.136 21.39 194.326 20.13 193.561 19.32C192.481 18.195 191.221 17.745 189.736 17.745ZM218.327 26.745L223.367 27.555C222.782 28.995 220.577 33.63 213.782 33.63C210.632 33.63 208.247 32.73 206.312 30.885C204.152 28.86 203.252 26.34 203.252 23.28C203.252 19.41 204.827 17.025 206.222 15.63C208.517 13.38 211.217 12.885 213.557 12.885C217.517 12.885 219.812 14.46 221.162 16.08C223.232 18.555 223.502 21.615 223.502 23.73V24.18H208.922C208.922 25.35 209.237 26.61 209.867 27.465C210.452 28.275 211.667 29.31 213.782 29.31C215.852 29.31 217.427 28.32 218.327 26.745ZM209.102 20.67H218.327C217.877 18.015 215.717 16.755 213.692 16.755C211.667 16.755 209.552 18.06 209.102 20.67ZM237.086 2.985H242.936V27.96H252.206V33H237.086V2.985ZM268.531 26.745L273.571 27.555C272.986 28.995 270.781 33.63 263.986 33.63C260.836 33.63 258.451 32.73 256.516 30.885C254.356 28.86 253.456 26.34 253.456 23.28C253.456 19.41 255.031 17.025 256.426 15.63C258.721 13.38 261.421 12.885 263.761 12.885C267.721 12.885 270.016 14.46 271.366 16.08C273.436 18.555 273.706 21.615 273.706 23.73V24.18H259.126C259.126 25.35 259.441 26.61 260.071 27.465C260.656 28.275 261.871 29.31 263.986 29.31C266.056 29.31 267.631 28.32 268.531 26.745ZM259.306 20.67H268.531C268.081 18.015 265.921 16.755 263.896 16.755C261.871 16.755 259.756 18.06 259.306 20.67ZM292.346 16.035V13.515H297.836V33H292.346V30.48C290.366 33.315 287.756 33.63 286.361 33.63C280.376 33.63 276.416 28.95 276.416 23.235C276.416 17.475 280.331 12.885 286.091 12.885C287.576 12.885 290.501 13.155 292.346 16.035ZM287.486 17.745C284.336 17.745 282.086 20.13 282.086 23.235C282.086 26.34 284.336 28.77 287.486 28.77C290.636 28.77 292.886 26.34 292.886 23.235C292.886 20.13 290.636 17.745 287.486 17.745ZM302.08 33V13.515H307.57V16.44C308.425 14.775 309.595 13.965 310 13.74C310.855 13.2 311.935 12.885 313.24 12.885C314.185 12.885 314.95 13.11 315.58 13.335L314.86 18.465C314.14 17.97 313.42 17.745 312.295 17.745C311.26 17.745 309.73 17.97 308.65 19.32C307.615 20.625 307.57 22.29 307.57 23.64V33H302.08ZM317.306 33V13.515H322.796V16.035C323.831 14.595 325.676 12.885 328.826 12.885C330.536 12.885 333.056 13.38 334.586 15.27C335.936 16.935 336.116 18.87 336.116 20.76V33H330.626V22.38C330.626 21.3 330.581 19.59 329.591 18.555C328.736 17.655 327.566 17.565 327.026 17.565C325.586 17.565 324.461 18.06 323.651 19.275C322.841 20.535 322.796 21.93 322.796 23.055V33H317.306ZM340.354 13.515H345.844V33H340.354V13.515ZM339.814 5.28C339.814 3.48 341.299 1.995 343.099 1.995C344.899 1.995 346.384 3.48 346.384 5.28C346.384 7.08 344.899 8.565 343.099 8.565C341.299 8.565 339.814 7.08 339.814 5.28ZM350.087 33V13.515H355.577V16.035C356.612 14.595 358.457 12.885 361.607 12.885C363.317 12.885 365.837 13.38 367.367 15.27C368.717 16.935 368.897 18.87 368.897 20.76V33H363.407V22.38C363.407 21.3 363.362 19.59 362.372 18.555C361.517 17.655 360.347 17.565 359.807 17.565C358.367 17.565 357.242 18.06 356.432 19.275C355.622 20.535 355.577 21.93 355.577 23.055V33H350.087ZM387.985 16.035V13.515H393.475V32.1C393.475 35.07 393.205 38.175 390.775 40.605C389.425 41.955 387.085 43.35 383.08 43.35C379.3 43.35 377.05 42.225 375.79 41.1C374.26 39.795 373.09 37.5 372.64 35.295H378.58C378.805 36.195 379.3 37.095 379.93 37.635C381.01 38.625 382.495 38.67 383.26 38.67C384.835 38.67 385.87 38.13 386.59 37.455C387.85 36.24 387.985 34.71 387.985 33.135V30.39C386.095 33.27 383.485 33.63 382 33.63C379.39 33.63 377.14 32.82 375.25 30.975C373.81 29.535 372.145 27.015 372.145 23.235C372.145 20.175 373.27 17.34 375.16 15.495C376.87 13.83 379.255 12.885 381.865 12.885C385.51 12.885 387.22 14.865 387.985 16.035ZM383.215 17.745C381.46 17.745 380.245 18.465 379.57 19.095C378.67 19.905 377.815 21.21 377.815 23.235C377.815 24.945 378.445 26.205 379.255 27.06C380.425 28.32 381.91 28.77 383.215 28.77C384.565 28.77 385.915 28.275 386.86 27.42C387.985 26.385 388.615 24.81 388.615 23.235C388.615 21.39 387.805 20.13 387.04 19.32C385.96 18.195 384.7 17.745 383.215 17.745ZM428.474 33L425.819 26.7H413.714L411.059 33H404.714L417.629 2.985H422.219L434.774 33H428.474ZM415.559 21.93H424.109L419.834 11.13L415.559 21.93ZM451.418 16.035V0.194999H456.908V33H451.418V30.48C449.438 33.315 446.828 33.63 445.433 33.63C439.448 33.63 435.488 28.95 435.488 23.235C435.488 17.475 439.403 12.885 445.163 12.885C446.648 12.885 449.573 13.155 451.418 16.035ZM446.558 17.745C443.408 17.745 441.158 20.13 441.158 23.235C441.158 26.34 443.408 28.77 446.558 28.77C449.708 28.77 451.958 26.34 451.958 23.235C451.958 20.13 449.708 17.745 446.558 17.745ZM458.632 13.515H464.752L469.882 24.495L475.012 13.515H481.132L471.322 33H468.442L458.632 13.515ZM496.484 26.745L501.524 27.555C500.939 28.995 498.734 33.63 491.939 33.63C488.789 33.63 486.404 32.73 484.469 30.885C482.309 28.86 481.409 26.34 481.409 23.28C481.409 19.41 482.984 17.025 484.379 15.63C486.674 13.38 489.374 12.885 491.714 12.885C495.674 12.885 497.969 14.46 499.319 16.08C501.389 18.555 501.659 21.615 501.659 23.73V24.18H487.079C487.079 25.35 487.394 26.61 488.024 27.465C488.609 28.275 489.824 29.31 491.939 29.31C494.009 29.31 495.584 28.32 496.484 26.745ZM487.259 20.67H496.484C496.034 18.015 493.874 16.755 491.849 16.755C489.824 16.755 487.709 18.06 487.259 20.67ZM504.919 33V13.515H510.409V16.035C511.444 14.595 513.289 12.885 516.439 12.885C518.149 12.885 520.669 13.38 522.199 15.27C523.549 16.935 523.729 18.87 523.729 20.76V33H518.239V22.38C518.239 21.3 518.194 19.59 517.204 18.555C516.349 17.655 515.179 17.565 514.639 17.565C513.199 17.565 512.074 18.06 511.264 19.275C510.454 20.535 510.409 21.93 510.409 23.055V33H504.919ZM537.237 18.195H533.457V33H527.967V18.195H525.807V13.515H527.967V6.855H533.457V13.515H537.237V18.195ZM539.106 13.515H544.596V24.54C544.596 25.575 544.686 26.97 545.766 27.96C546.441 28.545 547.521 28.95 548.556 28.95C549.591 28.95 550.671 28.545 551.346 27.96C552.426 26.97 552.516 25.575 552.516 24.54V13.515H558.006V25.44C558.006 27.195 557.781 29.535 555.621 31.425C553.821 33 550.941 33.63 548.556 33.63C546.171 33.63 543.291 33 541.491 31.425C539.331 29.535 539.106 27.195 539.106 25.44V13.515ZM562.242 33V13.515H567.732V16.44C568.587 14.775 569.757 13.965 570.162 13.74C571.017 13.2 572.097 12.885 573.402 12.885C574.347 12.885 575.112 13.11 575.742 13.335L575.022 18.465C574.302 17.97 573.582 17.745 572.457 17.745C571.422 17.745 569.892 17.97 568.812 19.32C567.777 20.625 567.732 22.29 567.732 23.64V33H562.242ZM590.586 26.745L595.626 27.555C595.041 28.995 592.836 33.63 586.041 33.63C582.891 33.63 580.506 32.73 578.571 30.885C576.411 28.86 575.511 26.34 575.511 23.28C575.511 19.41 577.086 17.025 578.481 15.63C580.776 13.38 583.476 12.885 585.816 12.885C589.776 12.885 592.071 14.46 593.421 16.08C595.491 18.555 595.761 21.615 595.761 23.73V24.18H581.181C581.181 25.35 581.496 26.61 582.126 27.465C582.711 28.275 583.926 29.31 586.041 29.31C588.111 29.31 589.686 28.32 590.586 26.745ZM581.361 20.67H590.586C590.136 18.015 587.976 16.755 585.951 16.755C583.926 16.755 581.811 18.06 581.361 20.67Z" fill="url(#paint0_linear_25_370)"/>
<defs>
<linearGradient id="paint0_linear_25_370" x1="124.5" y1="-9" x2="516" y2="-9" gradientUnits="userSpaceOnUse">
<stop stop-color="#0CFEA8"/>
<stop offset="1" stop-color="#038557"/>
</linearGradient>
</defs>
</svg>
